<?xml version="1.0" standalone="no"?>
<!DOCTYPE svg PUBLIC "-//W3C//DTD SVG 20010904//EN"
 "http://www.w3.org/TR/2001/REC-SVG-20010904/DTD/svg10.dtd">
<svg version="1.0" xmlns="http://www.w3.org/2000/svg"
 width="300.000000pt" height="123.000000pt" viewBox="0 0 300.000000 123.000000"
 preserveAspectRatio="xMidYMid meet">
<metadata>
Created by potrace 1.10, written by Peter Selinger 2001-2011
</metadata>
<g transform="translate(0.000000,123.000000) scale(0.100000,-0.100000)"
fill="#000000" stroke="none">
<path d="M710 997 c-41 -24 -86 -50 -100 -58 -14 -8 -27 -16 -30 -19 -3 -3
-21 -14 -40 -24 -73 -39 -70 -30 -70 -230 1 -127 4 -186 13 -197 7 -9 37 -30
67 -46 30 -17 100 -56 154 -87 l100 -57 45 26 c105 59 109 61 125 39 8 -10 27
-42 41 -71 15 -29 37 -59 50 -67 23 -15 25 -14 49 17 28 36 144 234 171 291 9
20 21 36 26 36 5 0 9 4 9 10 0 5 11 26 25 46 63 93 45 114 -102 114 l-103 0 0
63 c0 34 -4 67 -8 73 -7 10 -215 135 -279 168 -46 23 -59 20 -143 -27z m259
-67 l150 -85 1 -77 0 -78 120 0 c66 0 120 -2 120 -3 0 -2 -59 -105 -131 -228
-72 -123 -134 -230 -138 -238 -6 -9 -24 13 -60 74 -28 48 -51 91 -51 96 0 15
-12 10 -94 -39 l-80 -48 -150 88 c-83 48 -154 88 -159 88 -4 0 -6 82 -5 182
l3 182 150 87 c83 48 155 87 162 86 6 -1 79 -40 162 -87z"/>
<path d="M900 636 c0 -6 170 -299 178 -308 4 -4 37 46 74 110 38 64 79 136 94
160 l25 42 -185 0 c-102 0 -186 -2 -186 -4z m312 -32 c5 -5 -57 -121 -72 -134
-3 -3 -14 -24 -24 -47 -11 -24 -24 -43 -30 -43 -11 0 -127 189 -134 217 -3 10
26 13 126 13 71 0 131 -3 134 -6z"/>
<path d="M1502 744 c-24 -17 -28 -49 -10 -88 9 -21 8 -29 -5 -44 -21 -23 -21
-36 -2 -52 12 -10 12 -16 4 -26 -6 -8 -8 -25 -5 -38 6 -24 7 -24 37 -9 23 12
28 18 18 24 -11 7 -10 9 3 9 9 0 21 6 25 13 17 25 44 41 52 29 5 -8 13 -8 32
2 21 11 31 11 50 1 19 -11 27 -10 45 2 18 12 26 12 43 2 16 -11 23 -10 38 3
16 14 21 15 37 2 11 -7 29 -11 42 -8 12 3 25 1 28 -5 5 -7 13 -7 26 1 15 10
22 10 32 0 9 -9 16 -8 33 8 16 15 19 28 17 64 -6 75 -22 84 -148 79 -60 -2
-116 -4 -124 -5 -8 -1 -26 2 -40 6 -38 10 -80 -31 -80 -79 0 -21 5 -35 13 -36
6 0 2 -5 -11 -11 -29 -14 -34 -8 -42 52 -5 40 -3 52 12 64 23 20 28 20 28 0 0
-14 1 -14 16 0 21 22 11 33 -28 31 -18 -1 -42 4 -53 11 -26 18 -55 18 -83 -2z
m76 -16 c16 -16 15 -28 -3 -28 -8 0 -15 7 -15 16 0 9 -5 14 -12 12 -22 -8 -19
-26 11 -61 48 -54 38 -107 -20 -107 -30 0 -54 23 -43 41 5 8 12 5 24 -11 17
-23 40 -20 40 4 0 7 -13 30 -30 51 -43 54 -36 95 15 95 12 0 26 -5 33 -12z
m182 -57 c15 -30 12 -56 -10 -76 -42 -38 -98 21 -66 70 20 30 61 33 76 6z
m260 -33 c4 -35 2 -49 -8 -53 -23 -9 -32 4 -32 46 0 21 -4 39 -10 39 -5 0 -10
-20 -10 -45 0 -33 -4 -45 -15 -45 -11 0 -15 12 -15 45 0 57 -18 59 -22 3 -4
-62 -31 -59 -38 3 -5 43 -7 46 -27 38 -19 -7 -23 -16 -23 -49 0 -28 -4 -40
-14 -40 -10 0 -15 16 -18 54 l-3 55 115 -2 115 -2 5 -47z m-502 -125 c-5 -25
-28 -28 -28 -4 0 12 6 21 16 21 9 0 14 -7 12 -17z"/>
<path d="M1710 640 c0 -29 4 -40 13 -37 6 2 12 19 12 37 0 18 -6 35 -12 38 -9
2 -13 -9 -13 -38z"/>
<path d="M2170 725 c-7 -9 -22 -15 -34 -14 -39 4 -51 -1 -64 -22 -12 -18 -11
-26 4 -55 10 -19 24 -34 31 -34 19 0 16 10 -8 36 -30 32 -19 55 25 52 33 -2
76 22 76 44 0 13 -16 9 -30 -7z"/>
<path d="M2207 723 c-9 -9 -9 -33 1 -33 4 0 13 9 20 20 10 16 10 20 -1 20 -8
0 -17 -3 -20 -7z"/>
<path d="M2243 700 c-10 -11 -23 -20 -30 -20 -8 0 -13 -14 -13 -40 0 -24 5
-40 12 -40 9 0 9 -3 1 -11 -23 -23 -43 -2 -43 46 0 43 -12 60 -23 33 -4 -10
-8 -9 -16 2 -5 8 -13 11 -17 7 -4 -4 2 -17 14 -30 26 -27 27 -40 7 -57 -18
-15 -55 -4 -55 18 0 13 -2 14 -12 3 -11 -10 -7 -17 16 -37 26 -23 30 -24 51
-10 19 13 25 13 43 1 17 -13 21 -13 32 0 16 19 25 19 45 -1 16 -16 25 -15 58
8 15 11 21 10 33 -7 15 -20 16 -20 37 5 l23 26 24 -23 c31 -29 41 -29 68 0 30
31 28 41 -3 21 -20 -13 -31 -14 -49 -6 -50 23 -35 95 22 100 40 4 43 -18 5
-46 -15 -11 -23 -24 -19 -30 9 -16 36 -15 36 0 0 6 10 22 22 35 21 22 21 23 3
43 -23 26 -53 34 -70 20 -8 -7 -20 -8 -27 -4 -19 12 -72 12 -80 -1 -5 -7 -14
-6 -28 3 -28 17 -48 15 -67 -8z m177 -21 c0 -5 -9 -9 -19 -9 -16 0 -20 -8 -23
-42 -2 -30 -8 -43 -18 -43 -11 0 -15 11 -15 40 -1 22 -5 46 -9 54 -7 11 -3 13
22 8 17 -4 34 -2 37 3 7 12 25 4 25 -11z m-112 -1 c20 -20 15 -76 -7 -88 -11
-5 -24 -10 -30 -10 -19 0 -41 32 -41 59 0 32 16 51 45 51 12 0 26 -5 33 -12z"/>
<path d="M2264 666 c-8 -22 -1 -59 14 -64 8 -2 12 9 12 37 0 40 -15 55 -26 27z"/>
<path d="M2551 674 c0 -11 3 -14 6 -6 3 7 2 16 -1 19 -3 4 -6 -2 -5 -13z"/>
<path d="M2456 671 c-4 -7 -5 -15 -2 -18 9 -9 19 4 14 18 -4 11 -6 11 -12 0z"/>
<path d="M1587 532 c-10 -2 -17 -11 -15 -20 4 -19 51 -46 56 -32 2 6 10 10 18
10 8 0 14 10 14 23 0 16 3 18 9 9 7 -11 9 -11 14 0 4 11 -5 15 -36 14 -23 0
-50 -2 -60 -4z m40 -22 c1 -11 -4 -20 -12 -20 -11 0 -13 14 -6 38 4 11 17 -2
18 -18z"/>
<path d="M1738 513 c2 -13 -1 -23 -7 -23 -6 0 -11 9 -11 20 0 11 -4 20 -10 20
-5 0 -10 -9 -10 -21 0 -14 -5 -19 -15 -16 -8 4 -17 2 -21 -4 -10 -17 3 -21 27
-8 18 9 24 9 27 0 3 -9 7 -9 18 0 11 9 21 9 38 1 13 -6 27 -8 31 -4 4 4 21 7
38 7 27 0 32 4 32 25 0 23 -4 25 -42 25 -31 0 -39 -3 -31 -12 12 -14 2 -33
-17 -33 -20 0 -29 19 -15 34 8 11 6 14 -13 12 -18 -1 -22 -6 -19 -23z m112 10
c0 -5 -5 -15 -10 -23 -8 -12 -10 -11 -10 8 0 12 5 22 10 22 6 0 10 -3 10 -7z
m16 -30 c-11 -11 -17 4 -9 23 7 18 8 18 11 1 2 -10 1 -21 -2 -24z"/>
<path d="M1934 519 c-9 -10 -15 -22 -11 -25 3 -3 11 4 17 16 10 18 14 20 21 9
13 -20 11 -29 -6 -29 -8 0 -15 -4 -15 -10 0 -6 9 -6 24 0 16 6 28 5 36 -3 10
-10 12 -8 6 6 -3 10 -6 22 -6 26 0 4 -11 13 -24 19 -20 9 -27 7 -42 -9z"/>
<path d="M2132 527 c-29 -13 -28 -23 7 -40 25 -13 32 -12 55 2 30 18 32 26 11
35 -10 3 -15 -1 -15 -14 0 -13 -6 -18 -20 -17 -13 1 -20 8 -20 22 0 15 3 16 9
7 7 -11 9 -11 14 0 6 17 -10 19 -41 5z"/>
<path d="M2297 529 c-18 -10 -18 -12 4 -35 18 -19 25 -22 37 -11 12 9 16 9 19
0 5 -15 33 -17 33 -3 0 6 -7 10 -15 10 -8 0 -15 9 -15 19 0 28 -31 38 -63 20z
m41 -22 c2 -10 -3 -17 -12 -17 -10 0 -16 9 -16 21 0 24 23 21 28 -4z"/>
<path d="M2408 533 c-24 -6 -23 -25 2 -46 25 -21 26 -21 49 2 16 16 17 22 6
31 -11 9 -14 6 -17 -12 -2 -13 -7 -23 -13 -23 -16 0 -18 37 -3 46 14 9 5 10
-24 2z"/>
<path d="M2241 514 c0 -11 3 -14 6 -6 3 7 2 16 -1 19 -3 4 -6 -2 -5 -13z"/>
<path d="M2010 511 c0 -5 7 -11 15 -15 8 -3 15 -1 15 3 0 5 -7 11 -15 15 -8 3
-15 1 -15 -3z"/>
<path d="M2087 513 c-4 -3 -7 -11 -7 -17 0 -6 5 -5 12 2 6 6 9 14 7 17 -3 3
-9 2 -12 -2z"/>
<path d="M2506 511 c-4 -7 -5 -15 -2 -18 9 -9 19 4 14 18 -4 11 -6 11 -12 0z"/>
<path d="M1555 480 c3 -5 10 -10 16 -10 5 0 9 5 9 10 0 6 -7 10 -16 10 -8 0
-12 -4 -9 -10z"/>
</g>
</svg>
